<svg width="184" height="14" viewBox="0 0 184 14" fill="none" xmlns="http://www.w3.org/2000/svg">
<g id="ADMIN-TIMESHEET">
<path d="M9.52211 11.4492H4.35691L3.5289 13.8637H0L5.00749 0.194715H8.91096L13.9184 13.8637H10.3501L9.52211 11.4492ZM8.65467 8.879L6.93951 3.87483L5.24406 8.879H8.65467Z" fill="#182C51"/>
<path d="M20.6274 0.194715C22.0863 0.194715 23.3611 0.480296 24.452 1.05146C25.5429 1.62262 26.384 2.42745 26.9755 3.46592C27.58 4.49142 27.8823 5.67918 27.8823 7.02921C27.8823 8.36625 27.58 9.55401 26.9755 10.5925C26.384 11.631 25.5363 12.4358 24.4323 13.007C23.3414 13.5781 22.0731 13.8637 20.6274 13.8637H15.4425V0.194715H20.6274ZM20.4105 10.9819C21.6854 10.9819 22.6777 10.6379 23.3874 9.94993C24.0971 9.26194 24.452 8.28836 24.452 7.02921C24.452 5.77005 24.0971 4.78999 23.3874 4.08901C22.6777 3.38804 21.6854 3.03755 20.4105 3.03755H18.8137V10.9819H20.4105Z" fill="#182C51"/>
<path d="M45.4393 0.194715V13.8637H42.0681V5.6662L38.973 13.8637H36.2524L33.1375 5.64673V13.8637H29.7663V0.194715H33.7486L37.6324 9.65786L41.4767 0.194715H45.4393Z" fill="#182C51"/>
<path d="M51.2348 0.194715V13.8637H47.8636V0.194715H51.2348Z" fill="#182C51"/>
<path d="M66.0585 13.8637H62.6874L57.049 5.43254V13.8637H53.6778V0.194715H57.049L62.6874 8.66481V0.194715H66.0585V13.8637Z" fill="#182C51"/>
<path d="M76.9795 5.64673V8.41168H68.3051V5.64673H76.9795Z" fill="#182C51"/>
<path d="M89.894 0.194715V2.86231H86.2271V13.8637H82.8559V2.86231H79.189V0.194715H89.894Z" fill="#182C51"/>
<path d="M94.9571 0.194715V13.8637H91.5859V0.194715H94.9571Z" fill="#182C51"/>
<path d="M113.073 0.194715V13.8637H109.702V5.6662L106.607 13.8637H103.886L100.771 5.64673V13.8637H97.4001V0.194715H101.382L105.266 9.65786L109.111 0.194715H113.073Z" fill="#182C51"/>
<path d="M118.869 2.86231V5.62726H123.383V8.1975H118.869V11.1961H123.975V13.8637H115.497V0.194715H123.975V2.86231H118.869Z" fill="#182C51"/>
<path d="M131.171 14C130.159 14 129.252 13.8377 128.45 13.5132C127.648 13.1887 127.004 12.7084 126.518 12.0723C126.045 11.4363 125.795 10.6704 125.769 9.77469H129.357C129.41 10.2809 129.587 10.6704 129.889 10.943C130.192 11.2026 130.586 11.3324 131.072 11.3324C131.572 11.3324 131.966 11.2221 132.255 11.0014C132.544 10.7677 132.689 10.4497 132.689 10.0473C132.689 9.70978 132.571 9.43069 132.334 9.21001C132.111 8.98934 131.828 8.8076 131.486 8.66481C131.158 8.52202 130.685 8.35976 130.067 8.17802C129.173 7.90542 128.444 7.63282 127.878 7.36022C127.313 7.08762 126.827 6.68521 126.42 6.15299C126.012 5.62077 125.808 4.92629 125.808 4.06954C125.808 2.7974 126.275 1.80436 127.208 1.0904C128.141 0.363468 129.357 0 130.855 0C132.38 0 133.609 0.363468 134.542 1.0904C135.475 1.80436 135.975 2.80389 136.04 4.08901H132.393C132.367 3.64766 132.203 3.30366 131.9 3.05702C131.598 2.7974 131.21 2.66759 130.737 2.66759C130.33 2.66759 130.001 2.77793 129.751 2.99861C129.502 3.2063 129.377 3.51136 129.377 3.91377C129.377 4.35512 129.587 4.69912 130.008 4.94576C130.428 5.1924 131.085 5.45851 131.979 5.74409C132.873 6.04265 133.596 6.32823 134.148 6.60083C134.713 6.87344 135.199 7.26936 135.607 7.7886C136.014 8.30783 136.218 8.97636 136.218 9.79416C136.218 10.573 136.014 11.2805 135.607 11.9166C135.212 12.5526 134.634 13.0589 133.872 13.4353C133.109 13.8118 132.209 14 131.171 14Z" fill="#182C51"/>
<path d="M150.279 0.194715V13.8637H146.908V8.23644H141.664V13.8637H138.292V0.194715H141.664V5.54937H146.908V0.194715H150.279Z" fill="#182C51"/>
<path d="M156.084 2.86231V5.62726H160.598V8.1975H156.084V11.1961H161.19V13.8637H152.712V0.194715H161.19V2.86231H156.084Z" fill="#182C51"/>
<path d="M166.749 2.86231V5.62726H171.264V8.1975H166.749V11.1961H171.856V13.8637H163.378V0.194715H171.856V2.86231H166.749Z" fill="#182C51"/>
<path d="M184 0.194715V2.86231H180.333V13.8637H176.962V2.86231H173.295V0.194715H184Z" fill="#182C51"/>
</g>
</svg>
