<svg width="41" height="41" viewBox="0 0 41 41" fill="none" xmlns="http://www.w3.org/2000/svg">
<g id="clarity:employee-line">
<g id="clarityEmployeeLine0">
<path id="Vector" d="M18.7119 19.0079C17.1352 19.0079 15.5938 18.5404 14.2828 17.6644C12.9718 16.7884 11.95 15.5433 11.3466 14.0865C10.7432 12.6298 10.5853 11.0269 10.8929 9.4804C11.2005 7.93394 11.9598 6.51343 13.0747 5.39849C14.1897 4.28355 15.6102 3.52427 17.1566 3.21666C18.7031 2.90905 20.306 3.06693 21.7628 3.67033C23.2195 4.27373 24.4646 5.29555 25.3406 6.60657C26.2166 7.9176 26.6842 9.45895 26.6842 11.0357C26.6842 13.1501 25.8442 15.1778 24.3492 16.6729C22.8541 18.168 20.8263 19.0079 18.7119 19.0079ZM18.7119 5.43237C17.5857 5.43237 16.4847 5.76634 15.5483 6.39206C14.6118 7.01777 13.882 7.90712 13.451 8.94764C13.02 9.98817 12.9072 11.1331 13.1269 12.2377C13.3466 13.3424 13.889 14.357 14.6854 15.1534C15.4817 15.9498 16.4964 16.4921 17.601 16.7118C18.7056 16.9316 19.8506 16.8188 20.8911 16.3878C21.9316 15.9568 22.821 15.2269 23.4467 14.2905C24.0724 13.354 24.4064 12.2531 24.4064 11.1268C24.4064 10.379 24.2591 9.63853 23.9729 8.94764C23.6868 8.25676 23.2673 7.62901 22.7385 7.10023C22.2097 6.57146 21.582 6.15201 20.8911 5.86583C20.2002 5.57966 19.4598 5.43237 18.7119 5.43237ZM25.0556 20.386C18.8924 18.9991 12.4447 19.6671 6.69667 22.2879C5.90616 22.6655 5.23919 23.2599 4.77343 24.0019C4.30766 24.7439 4.06227 25.603 4.06583 26.479V33.2554C4.06583 33.405 4.09529 33.5531 4.15253 33.6913C4.20976 33.8294 4.29365 33.955 4.39941 34.0607C4.50516 34.1665 4.63071 34.2504 4.76889 34.3076C4.90707 34.3649 5.05516 34.3943 5.20472 34.3943C5.35428 34.3943 5.50238 34.3649 5.64056 34.3076C5.77873 34.2504 5.90428 34.1665 6.01004 34.0607C6.11579 33.955 6.19968 33.8294 6.25692 33.6913C6.31415 33.5531 6.34361 33.405 6.34361 33.2554V26.479C6.3337 26.0357 6.45342 25.599 6.6881 25.2228C6.92278 24.8465 7.2622 24.5469 7.66472 24.3607C11.1273 22.7619 14.8982 21.9417 18.7119 21.9576C20.8489 21.9549 22.9785 22.2073 25.0556 22.7093V20.386ZM25.215 31.2168H32.2078V32.8113H25.215V31.2168Z" fill="#222E50"/>
<path id="Vector_2" d="M37.7769 24.4517H31.8888V26.7295H36.638V36.262H20.4999V26.7295H27.6749V27.2078C27.6749 27.5099 27.7949 27.7996 28.0085 28.0132C28.2221 28.2267 28.5118 28.3467 28.8138 28.3467C29.1159 28.3467 29.4056 28.2267 29.6192 28.0132C29.8327 27.7996 29.9527 27.5099 29.9527 27.2078V22.7776C29.9527 22.4755 29.8327 22.1858 29.6192 21.9722C29.4056 21.7587 29.1159 21.6387 28.8138 21.6387C28.5118 21.6387 28.2221 21.7587 28.0085 21.9722C27.7949 22.1858 27.6749 22.4755 27.6749 22.7776V24.4517H19.3611C19.059 24.4517 18.7693 24.5717 18.5557 24.7853C18.3422 24.9989 18.2222 25.2886 18.2222 25.5906V37.4009C18.2222 37.7029 18.3422 37.9926 18.5557 38.2062C18.7693 38.4198 19.059 38.5398 19.3611 38.5398H37.7769C38.0789 38.5398 38.3686 38.4198 38.5822 38.2062C38.7958 37.9926 38.9158 37.7029 38.9158 37.4009V25.5906C38.9158 25.2886 38.7958 24.9989 38.5822 24.7853C38.3686 24.5717 38.0789 24.4517 37.7769 24.4517Z" fill="#222E50"/>
</g>
</g>
</svg>
