<svg width="37" height="36" viewBox="0 0 37 36" fill="none" xmlns="http://www.w3.org/2000/svg">
<g id="clarity:wallet-line" clip-path="url(#clip0_1_287)">
<path id="Vector" d="M32.4999 15H31.4999V9C31.4999 8.73478 31.3945 8.48043 31.207 8.29289C31.0195 8.10536 30.7651 8 30.4999 8H6.49989C6.2631 8.00386 6.03263 7.92356 5.8495 7.7734C5.66638 7.62324 5.54249 7.41296 5.49989 7.18V6.82C5.54249 6.58704 5.66638 6.37676 5.8495 6.2266C6.03263 6.07644 6.2631 5.99614 6.49989 6H30.0799C30.3451 6 30.5995 5.89464 30.787 5.70711C30.9745 5.51957 31.0799 5.26522 31.0799 5C31.0799 4.73478 30.9745 4.48043 30.787 4.29289C30.5995 4.10536 30.3451 4 30.0799 4H6.49989C5.70424 4 4.94118 4.31607 4.37857 4.87868C3.81596 5.44129 3.49989 6.20435 3.49989 7C3.49287 7.1199 3.49287 7.2401 3.49989 7.36V27.93C3.50382 28.4684 3.61376 29.0008 3.82344 29.4967C4.03312 29.9927 4.33843 30.4424 4.72194 30.8204C5.10545 31.1983 5.55964 31.497 6.05859 31.6994C6.55754 31.9018 7.09147 32.004 7.62989 32H30.4999C30.7651 32 31.0195 31.8946 31.207 31.7071C31.3945 31.5196 31.4999 31.2652 31.4999 31V25H32.4999C32.7651 25 33.0195 24.8946 33.207 24.7071C33.3945 24.5196 33.4999 24.2652 33.4999 24V16C33.4999 15.7348 33.3945 15.4804 33.207 15.2929C33.0195 15.1054 32.7651 15 32.4999 15ZM29.4999 30H7.62989C7.07369 30.0054 6.53787 29.7909 6.13898 29.4033C5.7401 29.0156 5.51041 28.4861 5.49989 27.93V9.88C5.82449 9.97407 6.16225 10.0146 6.49989 10H29.4999V15H22.4999C21.1738 15 19.902 15.5268 18.9644 16.4645C18.0267 17.4021 17.4999 18.6739 17.4999 20C17.4999 21.3261 18.0267 22.5979 18.9644 23.5355C19.902 24.4732 21.1738 25 22.4999 25H29.4999V30ZM31.4999 23H22.4999C21.7042 23 20.9412 22.6839 20.3786 22.1213C19.816 21.5587 19.4999 20.7956 19.4999 20C19.4999 19.2044 19.816 18.4413 20.3786 17.8787C20.9412 17.3161 21.7042 17 22.4999 17H31.4999V23Z" fill="white"/>
<path id="Vector_2" d="M23.51 21.5C24.3384 21.5 25.01 20.8284 25.01 20C25.01 19.1716 24.3384 18.5 23.51 18.5C22.6816 18.5 22.01 19.1716 22.01 20C22.01 20.8284 22.6816 21.5 23.51 21.5Z" fill="white"/>
</g>
<defs>
<clipPath id="clip0_1_287">
<rect width="36" height="36" fill="white" transform="translate(0.5)"/>
</clipPath>
</defs>
</svg>
