<svg width="36" height="36" viewBox="0 0 36 36" fill="none" xmlns="http://www.w3.org/2000/svg">
<g id="clarity:on-holiday-line">
<g id="clarityOnHolidayLine0">
<path id="Vector" d="M18.08 2.33984C9.25996 2.33984 2.07996 8.61984 2.07996 16.3398C2.07996 24.0598 9.25996 30.3398 18.08 30.3398C19.7436 30.3428 21.3995 30.1139 23 29.6598L28.53 33.1798C28.7528 33.3227 29.0233 33.3713 29.282 33.3151C29.5407 33.2589 29.7665 33.1023 29.91 32.8798C30.0139 32.7189 30.0695 32.5315 30.07 32.3398V25.6098C31.3212 24.4095 32.3197 22.971 33.0066 21.379C33.6936 19.787 34.0551 18.0737 34.07 16.3398C34.08 8.61984 26.9 2.33984 18.08 2.33984ZM28.37 24.4498C28.2694 24.5431 28.1891 24.656 28.1341 24.7816C28.079 24.9072 28.0504 25.0427 28.05 25.1798V30.5198L23.67 27.7298C23.5478 27.6526 23.4103 27.6028 23.267 27.5838C23.1237 27.5648 22.978 27.5771 22.84 27.6198C21.2987 28.0985 19.6939 28.3413 18.08 28.3398C10.36 28.3398 4.07996 22.9598 4.07996 16.3398C4.07996 9.71984 10.36 4.33984 18.08 4.33984C25.8 4.33984 32.08 9.71984 32.08 16.3398C32.056 17.8747 31.7138 19.3879 31.0753 20.7838C30.4367 22.1798 29.5155 23.428 28.37 24.4498Z" fill="#0CA59D"/>
<path id="Vector_2" d="M31.1 15.82L31 15.67L28.5 13.44C28.1781 13.1472 27.8007 12.9219 27.3902 12.7776C26.9796 12.6333 26.5443 12.5729 26.11 12.6L20.73 12.94L17.14 9.94005C16.9943 9.81761 16.8102 9.75034 16.62 9.75005H13.56C13.4196 9.74847 13.2814 9.78479 13.16 9.85519C13.0385 9.92559 12.9384 10.0275 12.87 10.15C12.7986 10.2695 12.7609 10.406 12.7609 10.545C12.7609 10.6841 12.7986 10.8206 12.87 10.94L14.23 13.38L9.51997 13.67L10.83 15.19L26.22 14.19C26.4418 14.1758 26.6642 14.2066 26.8739 14.2805C27.0835 14.3544 27.2761 14.4699 27.44 14.62L29.8 16.75C29.8076 16.7728 29.8076 16.7973 29.8 16.82C29.8 16.88 29.71 16.87 29.7 16.88H21.82L21.47 17.25L16.28 22.7801H14.64L17.37 16.88H8.53997L7.12997 14.16L6.50997 13C6.39259 12.8556 6.2285 12.7566 6.04597 12.7201C5.86344 12.6835 5.67389 12.7118 5.50997 12.8C5.32337 12.9052 5.186 13.0799 5.1279 13.2861C5.06981 13.4922 5.09572 13.713 5.19997 13.9L7.19997 17.84C7.30288 18.0372 7.45812 18.2021 7.64865 18.3168C7.83917 18.4315 8.05761 18.4914 8.27997 18.49H14.85L12.91 22.67C12.8254 22.8552 12.7892 23.0588 12.805 23.2617C12.8207 23.4646 12.8878 23.6602 13 23.83C13.108 23.9982 13.2558 24.1371 13.4301 24.2348C13.6045 24.3324 13.8002 24.3858 14 24.39H16.43C16.5959 24.3912 16.7602 24.357 16.9119 24.2897C17.0637 24.2225 17.1993 24.1237 17.31 24L22.49 18.49H29.65C29.9636 18.4986 30.2732 18.4175 30.5425 18.2563C30.8117 18.0952 31.0294 17.8606 31.17 17.58C31.316 17.307 31.3864 16.9999 31.3741 16.6905C31.3618 16.3812 31.2672 16.0807 31.1 15.82ZM14.92 11.3101H16.33L18.42 13.08L16 13.23L14.92 11.3101Z" fill="#0CA59D"/>
</g>
</g>
</svg>
