<svg width="40" height="40" viewBox="0 0 40 40" fill="none" xmlns="http://www.w3.org/2000/svg">
<g id="mdi:account-payment-outline">
<path id="Vector" d="M11.6667 6.6665C8 6.6665 5 9.6665 5 13.3332C5 16.9998 8 19.9998 11.6667 19.9998C15.3333 19.9998 18.3333 16.9998 18.3333 13.3332C18.3333 9.6665 15.3333 6.6665 11.6667 6.6665ZM11.6667 16.6665C9.83333 16.6665 8.33333 15.1665 8.33333 13.3332C8.33333 11.4998 9.83333 9.99984 11.6667 9.99984C13.5 9.99984 15 11.4998 15 13.3332C15 15.1665 13.5 16.6665 11.6667 16.6665ZM11.6667 23.3332C5.16667 23.3332 0 26.3332 0 29.9998V33.3332H18.3333V29.9998H3.33333C3.33333 28.9998 6.33333 26.6665 11.6667 26.6665C14.6667 26.6665 17 27.4998 18.3333 28.3332V24.6665C16.5 23.8332 14.1667 23.3332 11.6667 23.3332ZM36.6667 6.6665H25C23.1667 6.6665 21.6667 8.1665 21.6667 9.99984V29.9998C21.6667 31.8332 23.1667 33.3332 25 33.3332H36.6667C38.5 33.3332 40 31.8332 40 29.9998V9.99984C40 8.1665 38.5 6.6665 36.6667 6.6665ZM26.6667 29.9998H25V9.99984H26.6667V29.9998ZM36.6667 29.9998H30V9.99984H36.6667V29.9998Z" fill="#222E50"/>
</g>
</svg>
