<svg width="40" height="40" viewBox="0 0 40 40" fill="none" xmlns="http://www.w3.org/2000/svg">
<g id="mdi:office-building-plus-outline">
<path id="Vector" d="M19.9997 18.3332H16.6663V14.9998H19.9997V18.3332ZM23.333 18.3332H26.6663V14.9998H23.333V18.3332ZM22.333 34.9998H19.9997V29.1665H16.6663V34.9998H6.66634V4.99984H29.9997V21.8332C30.4997 21.6665 31.1663 21.6665 31.6663 21.6665C32.1663 21.6665 32.833 21.6665 33.333 21.8332V1.6665H3.33301V38.3332H24.1663C23.333 37.3332 22.6663 36.1665 22.333 34.9998ZM23.333 11.6665H26.6663V8.33317H23.333V11.6665ZM26.6663 22.9998V21.6665H23.333V24.9998H24.1663C24.9997 24.1665 25.833 23.4998 26.6663 22.9998ZM13.333 8.33317H9.99967V11.6665H13.333V8.33317ZM13.333 14.9998H9.99967V18.3332H13.333V14.9998ZM9.99967 31.6665H13.333V28.3332H9.99967V31.6665ZM19.9997 8.33317H16.6663V11.6665H19.9997V8.33317ZM16.6663 24.9998H19.9997V21.6665H16.6663V24.9998ZM13.333 21.6665H9.99967V24.9998H13.333V21.6665ZM29.9997 24.9998V29.9998H24.9997V33.3332H29.9997V38.3332H33.333V33.3332H38.333V29.9998H33.333V24.9998H29.9997Z" fill="#222E50"/>
</g>
</svg>
