<svg width="40" height="40" viewBox="0 0 40 40" fill="none" xmlns="http://www.w3.org/2000/svg">
<g id="solar:chart-outline">
<path id="Vector" fill-rule="evenodd" clip-rule="evenodd" d="M20.0833 2.0835H19.9166C18.8099 2.0835 17.8549 2.0835 17.0899 2.18683C16.2716 2.29683 15.4849 2.54516 14.8483 3.18183C14.2116 3.8185 13.9633 4.60516 13.8533 5.4235C13.7499 6.1885 13.7499 7.1435 13.7499 8.25183V12.2968C13.3484 12.1551 12.9257 12.083 12.4999 12.0835H7.49992C7.00746 12.0835 6.51983 12.1805 6.06486 12.3689C5.60988 12.5574 5.19649 12.8336 4.84827 13.1818C4.50005 13.5301 4.22383 13.9435 4.03537 14.3984C3.84692 14.8534 3.74992 15.341 3.74992 15.8335V35.4168H3.33325C3.00173 35.4168 2.68379 35.5485 2.44937 35.7829C2.21495 36.0174 2.08325 36.3353 2.08325 36.6668C2.08325 36.9983 2.21495 37.3163 2.44937 37.5507C2.68379 37.7851 3.00173 37.9168 3.33325 37.9168H36.6666C36.9981 37.9168 37.316 37.7851 37.5505 37.5507C37.7849 37.3163 37.9166 36.9983 37.9166 36.6668C37.9166 36.3353 37.7849 36.0174 37.5505 35.7829C37.316 35.5485 36.9981 35.4168 36.6666 35.4168H36.2499V24.1668C36.2499 23.1723 35.8548 22.2184 35.1516 21.5152C34.4483 20.8119 33.4945 20.4168 32.4999 20.4168H27.4999C27.0616 20.4168 26.6416 20.4918 26.2499 20.6302V8.25183C26.2499 7.1435 26.2499 6.1885 26.1466 5.4235C26.0366 4.60516 25.7883 3.8185 25.1516 3.18183C24.5149 2.54516 23.7299 2.29683 22.9099 2.18683C22.1449 2.0835 21.1899 2.0835 20.0816 2.0835H20.0833ZM33.7499 35.4168V24.1668C33.7499 23.8353 33.6182 23.5174 33.3838 23.2829C33.1494 23.0485 32.8314 22.9168 32.4999 22.9168H27.4999C27.1684 22.9168 26.8505 23.0485 26.616 23.2829C26.3816 23.5174 26.2499 23.8353 26.2499 24.1668V35.4168H33.7499ZM23.7499 35.4168V8.3335C23.7499 7.12016 23.7466 6.3335 23.6699 5.75683C23.5966 5.21516 23.4783 5.04516 23.3833 4.95016C23.2883 4.85516 23.1182 4.73683 22.5766 4.6635C21.9983 4.58683 21.2133 4.5835 19.9999 4.5835C18.7866 4.5835 17.9999 4.58683 17.4233 4.6635C16.8816 4.73683 16.7116 4.85516 16.6166 4.95016C16.5216 5.04516 16.4033 5.21516 16.3299 5.75683C16.2533 6.33516 16.2499 7.12016 16.2499 8.3335V35.4168H23.7499ZM13.7499 35.4168V15.8335C13.7499 15.502 13.6182 15.184 13.3838 14.9496C13.1494 14.7152 12.8314 14.5835 12.4999 14.5835H7.49992C7.1684 14.5835 6.85046 14.7152 6.61603 14.9496C6.38161 15.184 6.24992 15.502 6.24992 15.8335V35.4168H13.7499Z" fill="#222E50"/>
</g>
</svg>
